<svg xmlns="http://www.w3.org/2000/svg" x="0px" y="0px" width="1092" height="480"
	 viewBox="0 60 1092 480" xml:space="preserve">
<style type="text/css">
	.st0,.st1,.st2,.st3,.st4,.st5,.st6,.st7,.st8,.st9,.st10,.st11,.st12,.st13,.st14,.st15,.st16,.st17,.st18,.st19,.st20{
		stroke:#28EDA0;stroke-miterlimit:10;
	}
	.st0,.st1,.st2,.st3,.st4,.st5,.st6,.st7,.st8,.st9,.st17,.st18,.st19,.st20{
		fill:none;
	}
	.st1,.st5,.st8,.st11,.st12,.st14,.st15,.st16,.st17,.st18,.st19,.st20{
		stroke-linecap:round;stroke-linejoin:round;
	}
	.st3,.st6,.st9{
		stroke-linecap:round;
	}
	.st0 {stroke-width:2.0000;}
	.st1 {stroke-width:0.7500;}
	.st2 {stroke-width:0.7500;}
	.st3 {stroke-width:0.7500;}
	.st4 {stroke-width:0.7490;}
	.st5 {stroke-width:0.7490;}
	.st6 {stroke-width:0.7490;}
	.st7 {stroke-width:0.7507;}
	.st8 {stroke-width:0.7507;}
	.st9 {stroke-width:0.7507;}
	.st10{stroke-width:3.0000;}
	.st11{stroke-width:3.0000;}
	.st12{stroke-width:2.2904;}
	.st13{stroke-width:2.3217;}
	.st14{stroke-width:2.0471;}
	.st15{stroke-width:1.9951;}
	.st16{stroke-width:2.0374;}
	.st17{stroke-width:2.0374;}
	.st18{stroke-width:1.9846;}
	.st19{stroke-width:1.9958;}
	.st20{stroke-width:3.0000;}
</style>
<g>
	<line class="st0" x1="548.6" y1="1.3" x2="548.6" y2="549.5"/>
	<line class="st0" x1="1090.3" y1="1" x2="1090.3" y2="551.3"/>
	<g>
		<line class="st1" x1="4.9" y1="276.9" x2="23.4" y2="1.5"/>
		<path class="st1" d="M32.3,2.1"/>
		<path class="st1" d="M2.2,275.4c0,0,26.4-213.2,30.1-273.3"/>
		<path class="st1" d="M4,276.9C4,276.9,35.8,62,39.4,2"/>
		<path class="st1" d="M4,276.9c0,0,42.3-203,49.6-273.9"/>
		<path class="st1" d="M4,276.9c0,0,60.3-137.9,80.3-270.7"/>
		<path class="st1" d="M547,1.3c0,0-131.1-7.3-286.6,67.3C95.7,147.6,2.7,274.9,2.7,274.9S189,111.4,220,4.1"/>
		<line class="st0" x1="3.3" y1="1.3" x2="1" y2="551.6"/>
		<path class="st1" d="M546.9,276c0,0-116.4-150.1-273.8-217.4C138.4,1,24.5,0.8,3.7,1.3"/>
		<path class="st1" d="M330,5c0,0-55,87.3-55,271"/>
		<path class="st1" d="M220,4.1c0,0,55,88.2,55,271.9"/>
		<path class="st1" d="M116.7,276c0,0,6.4-28.2-7.3-138.2S84.3,6.3,84.3,6.3"/>
		<path class="st1" d="M70.2,276.9c0,0,3.2-34.9-4.4-145.5C58.5,25,53.5,3,53.5,3"/>
		<path class="st1" d="M52.7,276.7c0,0,4.3-34.7-3.3-145.4C42.2,25,39.4,2,39.4,2"/>
		<path class="st1" d="M42.5,276.7c0,0,2.3-31.2-3.1-145.8C34.4,24.4,32.3,2.1,32.3,2.1"/>
		<path class="st1" d="M34.1,276.7c0,0,0.8-28-3.3-145.8C27.1,24.3,23.4,1.5,23.4,1.5"/>
		<path class="st1" d="M28.1,277.4c0,0,0.1-28.6-1.4-146.4C25.3,23.6,23.4,1.5,23.4,1.5"/>
		<line class="st1" x1="547" y1="276.9" x2="528.5" y2="1.5"/>
		<path class="st1" d="M547.9,276.9c0,0-25-214.9-28.7-274.8"/>
		<path class="st1" d="M547.9,276.9c0,0-31.9-214.8-35.5-274.7"/>
		<path class="st1" d="M547.9,276.9c0,0-42.7-202.8-50-273.6"/>
		<path class="st1" d="M547.9,276.9c0,0-60.4-137.9-80.4-270.6"/>
		<path class="st1" d="M435.2,276c0,0-6.4-28.2,7.3-138.2c13.6-110,25.1-131.5,25.1-131.5"/>
		<path class="st1" d="M482.5,276c0,0-3.9-33.9,3.6-144.3C493.4,25.4,497.8,3.6,497.8,3.6"/>
		<path class="st1" d="M499.7,276c0,0-4.8-33.9,2.7-144.3c7.3-106.2,9.9-128.6,9.9-128.6"/>
		<path class="st1" d="M509.7,276c0,0-2.7-30.4,2.7-144.8c5.1-106.3,6.8-129.1,6.8-129.1"/>
		<path class="st1" d="M518.4,276c0,0-1.4-27.2,2.7-144.8c3.7-106.4,7.4-129.7,7.4-129.7"/>
		<path class="st1" d="M523.8,277.4c0,0-0.1-28.5,1.4-146.2c1.4-107.1,3.3-129.7,3.3-129.7"/>
		<path class="st1" d="M547.1,275.8c0,0-78.4-62.1-141.9-148.7C341.8,40.4,330,5,330,5"/>
		<path class="st1" d="M2.4,276.4c0,0,149-50.3,266.4-79.8c143.9-36.2,279-32.1,279-32.1"/>
		<path class="st1" d="M2.4,276.4c0.7,0,232.3-46.3,338-59.3c105.7-13,206.7-10.2,206.7-10.2"/>
		<path class="st1" d="M4.9,276.9c2-1.1,195.8-39.3,330.8-44.1c123.5-4.4,212.1-5.5,212.1-5.5"/>
		<path class="st1" d="M4.9,276.9c2-1.1,195.8-27.7,330.8-32.5c123.5-4.4,212.1-5.5,212.1-5.5"/>
		<path class="st1" d="M4.9,276.9c2-1.1,195.8-20.2,330.8-25c123.5-4.4,212.1-5.5,212.1-5.5"/>
		<path class="st1" d="M4.9,276.9c2-1.1,195.8-15.5,330.8-20.2c123.5-4.4,212.1-5.5,212.1-5.5"/>
		<path class="st1" d="M4.9,276.9c2-1.1,195.8-11.4,330.8-16.1c123.5-4.4,212.1-5.5,212.1-5.5"/>
		<path class="st1" d="M547.1,276.4c0,0-147.9-50.3-265.3-79.8C137.9,160.5,2.7,164.2,2.7,164.2"/>
		<path class="st1" d="M547.8,276.4c-0.7,0-231.9-46.4-337.6-59.3C104.5,204.1,2.6,207,2.6,207"/>
		<path class="st1" d="M545.8,276.9c-2-1.1-195.8-39.3-330.8-44.1c-123.5-4.4-212.4-5.5-212.4-5.5"/>
		<path class="st1" d="M545.8,276.9c-2-1.1-195.8-27.7-330.8-32.5C91.5,240,2.2,238.9,2.2,238.9"/>
		<path class="st1" d="M545.8,276.9c-2-1.1-195.8-20.2-330.8-25c-123.5-4.4-212.5-5.5-212.5-5.5"/>
		<path class="st1" d="M545.8,276.9c-2-1.1-195.8-15.5-330.8-20.2c-123.5-4.4-212.7-5.4-212.7-5.4"/>
		<path class="st1" d="M545.8,276.9c-2-1.1-195.8-11.4-330.8-16.1c-123.5-4.4-212.7-5.5-212.7-5.5"/>
	</g>
	<g>
		<line class="st2" x1="548.7" y1="276.9" x2="567.2" y2="1.3"/>
		<path class="st2" d="M576.2,1.7"/>
		<path class="st2" d="M547.4,275.1c0,0,25.2-213.3,28.8-273.4"/>
		<path class="st2" d="M547.8,276.9c0,0,31.8-214.8,35.5-274.8"/>
		<path class="st2" d="M547.8,276.9c0,0,42.3-203.1,49.6-274.1"/>
		<path class="st2" d="M547.8,276.9c0,0,60-137.7,80-270.4"/>
		<path class="st1" d="M1089.9,1.3c0,0-130.1-7.3-285.6,67.3c-164.7,79-256.9,207.8-256.9,207.8
			S732.9,111.4,763.8,4.1"/>
		<path class="st2" d="M547.1,1.3c0,0,120.2-6.7,269.9,57.3C974.4,125.9,1089.4,276,1089.4,276"/>
		<path class="st3" d="M873.9,5c0,0-55,87.3-55,271"/>
		<path class="st3" d="M763.8,4.1c0,0,55,88.2,55,271.9"/>
		<path class="st2" d="M660,276.7c0,0,6.9-28.9-6.7-139S628.1,6.5,628.1,6.5"/>
		<path class="st2" d="M613.3,276c0,0,3.9-34-3.6-144.6C602.4,25,597.4,2.8,597.4,2.8"/>
		<path class="st2" d="M596,276c0,0,4.8-34-2.7-144.6C586,25,583.3,3,583.3,3"/>
		<path class="st2" d="M586,276c0,0,2.7-30.5-2.7-145.1c-5.1-106.5-7.1-129.2-7.1-129.2"/>
		<path class="st2" d="M577.4,276c0,0,1.4-27.3-2.7-145.1c-3.7-106.6-7.4-129.6-7.4-129.6"/>
		<path class="st2" d="M571.9,277.4c0,0,0.1-28.6-1.4-146.4c-1.4-107.3-3.3-129.6-3.3-129.6"/>
		<line class="st2" x1="1089.4" y1="276.9" x2="1072.4" y2="1.8"/>
		<path class="st2" d="M1089.4,276.9c0,0-22.4-214.8-26-274.9"/>
		<path class="st2" d="M1089.4,276.9c0,0-29.4-214.7-33.1-274.7"/>
		<path class="st2" d="M1089.4,276.9c0,0-39.9-203.2-47.2-274.1"/>
		<path class="st2" d="M1089.4,276.9c0,0-58.1-137.9-78.1-270.7"/>
		<path class="st2" d="M978.1,276.9c0,0-5.4-29.1,8.2-139.2c13.6-110,25-131.1,25-131.1"/>
		<path class="st2" d="M1025.2,276.6c0,0-2.8-34.6,4.7-145.2c7.3-106.4,12.3-128.6,12.3-128.6"/>
		<path class="st2" d="M1042.7,276.6c0,0-4-34.6,3.6-145.2c7.3-106.4,10-128.3,10-128.3"/>
		<path class="st2" d="M1052.9,276.9c0,0-2-31.4,3.5-146c5.1-106.5,7-128.9,7-128.9"/>
		<path class="st2" d="M1061.5,276.7c0,0-0.7-28,3.4-145.8c3.7-106.6,7.4-129.1,7.4-129.1"/>
		<path class="st2" d="M1067.7,277.4c0,0-0.1-28.6,1.4-146.4c1.4-107.3,3.3-129.1,3.3-129.1"/>
		<path class="st3" d="M1089.4,275.8c0,0-76.9-62.1-140.3-148.7C885.7,40.4,873.9,5,873.9,5"/>
		<path class="st2" d="M547.4,276.4c0,0,147.9-50.3,265.3-79.8c143.9-36.2,277.3-32.1,277.3-32.1"/>
		<path class="st2" d="M546.7,276.4c0.7,0,231.9-46.4,337.6-59.3c105.7-13,205.7-10.2,205.7-10.2"/>
		<path class="st2" d="M548.7,276.9c2-1.1,195.8-39.3,330.8-44.1c123.5-4.4,210.5-5.5,210.5-5.5"/>
		<path class="st2" d="M548.7,276.9c2-1.1,195.8-27.7,330.8-32.5c123.5-4.4,210.5-5.5,210.5-5.5"/>
		<path class="st2" d="M548.7,276.9c2-1.1,195.8-20.2,330.8-25c123.5-4.4,210.5-5.5,210.5-5.5"/>
		<path class="st2" d="M548.7,276.9c2-1.1,195.8-15.5,330.8-20.2c123.5-4.4,210.5-5.5,210.5-5.5"/>
		<path class="st2" d="M548.7,276.9c2-1.1,195.8-11.4,330.8-16.1c123.5-4.4,210.5-5.5,210.5-5.5"/>
		<path class="st2" d="M1089.4,276.4c0,0-146.3-50.3-263.7-79.8c-143.9-36.2-279-32.1-279-32.1"/>
		<path class="st2" d="M1089.4,276.4c-0.7,0-229.6-46.4-335.4-59.3c-105.7-13-206.7-10.2-206.7-10.2"/>
		<path class="st2" d="M1089.4,276.9c-2-1.1-195.5-39.3-330.6-44.1c-123.5-4.4-212.1-5.5-212.1-5.5"/>
		<path class="st2" d="M1089.4,276.9c-2-1.1-195.5-27.7-330.6-32.5c-123.5-4.4-212.1-5.5-212.1-5.5"/>
		<path class="st2" d="M1089.4,276.9c-2-1.1-195.5-20.2-330.6-25c-123.5-4.4-212.1-5.5-212.1-5.5"/>
		<path class="st2" d="M1089.4,276.9c-2-1.1-195.5-15.5-330.6-20.2c-123.5-4.4-212.1-5.5-212.1-5.5"/>
		<path class="st2" d="M1089.4,276.9c-2-1.1-195.5-11.4-330.6-16.1c-123.5-4.4-212.1-5.5-212.1-5.5"/>
	</g>
	<line class="st0" x1="1089.4" y1="276.8" x2="2.1" y2="276.8"/>
	<g>
		<line class="st4" x1="1089.4" y1="276.2" x2="1071.3" y2="550.4"/>
		<path class="st4" d="M1061.8,549.7"/>
		<path class="st4" d="M1089.4,278c0,0-24,211.6-27.7,271.6"/>
		<path class="st4" d="M1089.4,276.2c0,0-30.8,213.7-34.5,273.8"/>
		<path class="st4" d="M1089.4,276.2c0,0-40.8,201.9-48.1,272.8"/>
		<path class="st4" d="M1089.4,276.2c0,0-58.8,136.9-78.8,269.6"/>
		<path class="st5" d="M549.2,550c0,0,130.3,9.1,285.4-65.5c164.2-79,254.9-207.8,254.9-207.8
			S905.8,441.7,874.9,549.1"/>
		<path class="st4" d="M1091,551.3c0,0-119.9,7.2-269.1-56.8c-156.9-67.3-273-217.4-273-217.4"/>
		<path class="st6" d="M765.2,548.2c0,0,53.6-87.4,53.6-271.1"/>
		<path class="st6" d="M874.9,549.1c0,0-56.2-88.4-56.2-272.2"/>
		<path class="st4" d="M977.9,277.1c0,0-6.3,28.2,7.3,138.2c13.6,110,24.5,130.1,24.5,130.1"/>
		<path class="st4" d="M1025,277.1c0,0-3.9,34,3.6,144.6c7.3,106.4,12.7,127.3,12.7,127.3"/>
		<path class="st4" d="M1042.3,277.1c0,0-4.8,34,2.7,144.6c7.3,106.4,10,127.3,10,127.3"/>
		<path class="st4" d="M1052.2,277.1c0,0-2.7,30.5,2.7,145.1c5.1,106.5,6.8,127.5,6.8,127.5"/>
		<path class="st4" d="M1060.8,277.1c0,0-1.4,27.3,2.7,145.1c3.7,106.6,7.7,128.2,7.7,128.2"/>
		<path class="st4" d="M1067.5,277.1c0,0-1.4,27.3,0.1,145.1c1.4,107.3,3.6,128.2,3.6,128.2"/>
		<line class="st4" x1="548.7" y1="276.2" x2="567.2" y2="550"/>
		<path class="st4" d="M547.8,276.2c0,0,24.7,213.8,28.3,273.8"/>
		<path class="st4" d="M547.8,276.2c0,0,31.7,213.7,35.4,273.8"/>
		<path class="st4" d="M547.8,276.2c0,0,42.6,201.9,49.9,272.8"/>
		<path class="st4" d="M547.8,276.2c0,0,59.6,137,79.5,269.8"/>
		<path class="st4" d="M660.3,277.1c0,0,6.3,28.2-7.3,138.2c-13.6,110-24.5,130.1-24.5,130.1"/>
		<path class="st4" d="M613.1,277.1c0,0,3.9,34-3.6,144.6c-7.3,106.4-11.8,127.3-11.8,127.3"/>
		<path class="st4" d="M595.9,277.1c0,0,4.8,34-2.7,144.6c-7.3,106.4-10,127.3-10,127.3"/>
		<path class="st4" d="M585.9,277.1c0,0,2.7,30.5-2.7,145.1c-5.1,106.5-7,127.8-7,127.8"/>
		<path class="st4" d="M577.3,277.1c0,0,1.4,27.3-2.7,145.1c-3.7,106.6-7.4,127.8-7.4,127.8"/>
		<path class="st4" d="M571.9,275.8c0,0,0.1,28.6-1.4,146.4c-1.4,107.3-3.3,127.8-3.3,127.8"/>
		<path class="st6" d="M548.6,277.4c0,0,78.2,62.1,141.5,148.7s75.1,122.1,75.1,122.1"/>
		<path class="st4" d="M1089.4,276.7c0,0-146.2,50.3-263.2,79.8C682.6,392.6,548,388.5,548,388.5"/>
		<path class="st4" d="M1089.4,276.7c-0.7,0-229.2,46.4-334.7,59.3c-105.4,13-206.1,10.2-206.1,10.2"/>
		<path class="st4" d="M1089.4,276.2c-2,1.1-195.2,39.3-329.9,44.1c-123.1,4.4-211.6,5.5-211.6,5.5"/>
		<path class="st4" d="M1089.4,276.2c-2,1.1-195.2,27.7-329.9,32.5c-123.1,4.4-211.6,5.5-211.6,5.5"/>
		<path class="st4" d="M1089.4,276.2c-2,1.1-195.2,20.2-329.9,25c-123.1,4.4-211.6,5.5-211.6,5.5"/>
		<path class="st4" d="M1089.4,276.2c-2,1.1-195.2,15.5-329.9,20.2c-123.1,4.4-211.6,5.5-211.6,5.5"/>
		<path class="st4" d="M1089.4,276.2c-2,1.1-195.2,11.4-329.9,16.1c-123.1,4.4-211.6,5.5-211.6,5.5"/>
		<path class="st4" d="M548.6,276.7c0,0,147.5,50.3,264.6,79.8c143.5,36.2,276.9,32.1,276.9,32.1"/>
		<path class="st4" d="M548,276.7c0.7,0,231.3,46.4,336.7,59.3c105.4,13,206.1,10.2,206.1,10.2"/>
		<path class="st4" d="M550,276.2c2,1.1,195.2,39.3,329.9,44.1c123.1,4.4,210.3,5.5,210.3,5.5"/>
		<path class="st4" d="M550,276.2c2,1.1,195.2,27.7,329.9,32.5c123.1,4.4,210.3,5.5,210.3,5.5"/>
		<path class="st4" d="M550,276.2c2,1.1,195.2,20.2,329.9,25c123.1,4.4,210.3,5.5,210.3,5.5"/>
		<path class="st4" d="M550,276.2c2,1.1,195.2,15.5,329.9,20.2c123.1,4.4,210.3,5.5,210.3,5.5"/>
		<path class="st4" d="M550,276.2c2,1.1,195.2,11.4,329.9,16.1c123.1,4.4,210.3,5.5,210.3,5.5"/>
	</g>
	<g>
		<line class="st7" x1="547" y1="276.2" x2="528.6" y2="550.4"/>
		<path class="st7" d="M519.7,550"/>
		<path class="st7" d="M548.4,278c0,0-25.1,212-28.8,272"/>
		<path class="st7" d="M548,276.2c0,0-31.8,213.7-35.4,273.8"/>
		<path class="st7" d="M548,276.2c0,0-41.8,201.9-49,272.8"/>
		<path class="st7" d="M548,276.2c0,0-59.6,137-79.6,269.8"/>
		<path class="st8" d="M1.5,550c0,0,135.1,9.1,290.4-65.5c164.4-79,256.5-207.8,256.5-207.8S363.2,441.7,332.3,549.1
			"/>
		<path class="st7" d="M549.2,550c0,0-120.6,8.6-270-55.5C122.1,427.2,3.3,277.1,3.3,277.1"/>
		<path class="st9" d="M222.4,549.1c0,0,51.9-88.6,51.9-272.3"/>
		<path class="st9" d="M332.3,549.1c0,0-57.8-88.4-57.8-272.2"/>
		<path class="st7" d="M435.4,277.1c0,0-6.4,28.2,7.3,138.2c13.6,110,24.5,130.1,24.5,130.1"/>
		<path class="st7" d="M482.6,277.1c0,0-3.9,34,3.6,144.6c7.3,106.4,12.7,127.3,12.7,127.3"/>
		<path class="st7" d="M499.8,277.1c0,0-4.8,34,2.7,144.6c7.3,106.4,10,127.3,10,127.3"/>
		<path class="st7" d="M509.8,277.1c0,0-2.7,30.5,2.7,145.1c5.1,106.5,7.1,127.8,7.1,127.8"/>
		<path class="st7" d="M518.4,277.1c0,0-1.4,27.3,2.7,145.1c3.7,106.6,7.4,128.2,7.4,128.2"/>
		<path class="st7" d="M523.9,275.8c0,0-0.1,28.6,1.4,146.4c1.4,107.3,3.3,128.2,3.3,128.2"/>
		<line class="st7" x1="3.3" y1="276.2" x2="24.2" y2="550"/>
		<path class="st7" d="M3.3,276.2c0,0,26.2,213.4,29.8,273.5"/>
		<path class="st7" d="M3.3,276.2c0,0,33.3,213.7,36.9,273.8"/>
		<path class="st7" d="M3.3,276.2c0,0,43.2,201.9,50.5,272.8"/>
		<path class="st7" d="M3.3,276.2c0,0,61,136.9,81,269.6"/>
		<path class="st7" d="M117.4,277.1c0,0,6.4,28.2-7.3,138.2S85.6,545.4,85.6,545.4"/>
		<path class="st7" d="M70.2,277.1c0,0,3.9,34-3.6,144.6c-7.3,106.4-12.7,127.3-12.7,127.3"/>
		<path class="st7" d="M52.9,277.1c0,0,4.8,34-2.7,144.6c-7.3,106.4-10,127.3-10,127.3"/>
		<path class="st7" d="M42.9,277.1c0,0,2.7,30.5-2.7,145.1c-5.1,106.5-7,127.5-7,127.5"/>
		<path class="st7" d="M34.3,277.1c0,0,1.4,27.3-2.7,145.1C27.9,528.8,24.2,550,24.2,550"/>
		<path class="st7" d="M28.4,276.7c0,0,0.6,27.6-0.9,145.4C26.1,529.5,24.2,550,24.2,550"/>
		<path class="st9" d="M3.9,277.7c0,0,80,61.7,143.3,148.3c63.3,86.6,75.1,123,75.1,123"/>
		<path class="st7" d="M548.4,276.7c0,0-147.7,50.3-264.9,79.8C139.8,392.6,1.9,388.7,1.9,388.7"/>
		<path class="st7" d="M549.1,276.7c-0.7,0-231.6,46.4-337.1,59.3C106.4,349,2.4,346.2,2.4,346.2"/>
		<path class="st7" d="M547,276.2c-2,1.1-195.5,39.3-330.3,44.1c-123.3,4.4-214.5,5.5-214.5,5.5"/>
		<path class="st7" d="M547,276.2c-2,1.1-195.5,27.7-330.3,32.5c-123.3,4.4-215,5.5-215,5.5"/>
		<path class="st7" d="M547,276.2c-2,1.1-195.5,20.2-330.3,25c-123.3,4.4-214.3,5.5-214.3,5.5"/>
		<path class="st7" d="M547,276.2c-2,1.1-195.5,15.5-330.3,20.2c-123.3,4.4-211.8,5.5-211.8,5.5"/>
		<path class="st7" d="M547,276.2c-2,1.1-195.5,11.4-330.3,16.1c-123.3,4.4-214.5,5.5-214.5,5.5"/>
		<path class="st7" d="M3.3,276.7c0,0,150,50.3,267.2,79.8c143.7,36.2,278.6,32.1,278.6,32.1"/>
		<path class="st7" d="M3.3,276.7c0.7,0,233.1,46.4,338.7,59.3c105.6,13,206.4,10.2,206.4,10.2"/>
		<path class="st7" d="M7,276.2c2,1.1,195.5,39.3,330.3,44.1c123.3,4.4,211.8,5.5,211.8,5.5"/>
		<path class="st7" d="M7,276.2c2,1.1,195.5,27.7,330.3,32.5c123.3,4.4,211.8,5.5,211.8,5.5"/>
		<path class="st7" d="M7,276.2c2,1.1,195.5,20.2,330.3,25c123.3,4.4,211.8,5.5,211.8,5.5"/>
		<path class="st7" d="M7,276.2c2,1.1,195.5,15.5,330.3,20.2c123.3,4.4,211.8,5.5,211.8,5.5"/>
		<path class="st7" d="M7,276.2c2,1.1,195.5,11.4,330.3,16.1c123.3,4.4,211.8,5.5,211.8,5.5"/>
	</g>
</g>
<path class="st10" d="M108,385.7c0,0,61.9-5,106.9-13s63.9-14,63.9-14V193.8c0,0-45-9-74.9-14c-30-5-91.9-11-91.9-11
	L108,385.7z"/>
<polygon class="st10" points="112,168.8 70,208.3 70,350.2 108,385.7 "/>
<polygon class="st11" points="411.7,229.5 445.7,241.4 445.7,328 411.7,342.7 "/>
<path class="st10" d="M653.5,382.7c-1.9-2.5,146.9-19,164.9-24c116.9,19,168.9,25,168.9,25s-63.9,63.9-168.9,108.9
	C740.5,456.6,674.5,410.6,653.5,382.7z"/>
<polygon class="st10" points="818.4,313.7 818.4,246.8 885.4,244.8 885.4,321.4 "/>
<polygon class="st10" points="885.4,244.8 922.7,251.4 922.7,308.7 885.4,321.4 "/>
<polygon class="st12" points="840.1,194.8 870,200.8 901.3,196.8 876.7,190.8 "/>
<polygon class="st13" points="840.1,194.8 840.1,152.8 876.7,144.9 876.7,190.8 "/>
<polygon class="st12" points="877.3,144.9 901.3,158.5 901.3,196.8 877.3,190.8 "/>
<path class="st11" d="M323.8,232.8c0.7,2.7,0,101.2,0,101.2s79.9,7.3,87.9,8.7c0-26.6,0-113.2,0-113.2L323.8,232.8z"
	/>
<g>
	<path class="st14" d="M690.4,247.2c0,0,0.9,56.8,0.9,75c5.5-0.9,63.2-1.8,63.2-1.8v-70.9L690.4,247.2z M714.3,307l-14.5,1l0.2-47.2
		l14.3,0.8V307z M745.5,311.2l-17.8-3.5v-46.5l17.8-2.7V311.2z"/>
	<polygon class="st15" points="690.3,247.2 671.4,253.1 671.4,316.5 690.3,322.2 	"/>
	<polygon class="st16" points="677,259 677,310.5 684.4,312.5 684.4,256.6 	"/>
	<line class="st17" x1="677.2" y1="308.6" x2="683.9" y2="308.4"/>
	<polygon class="st18" points="745.8,311.7 699.5,312.7 699.5,255.8 745.8,257.8 	"/>
	<line class="st19" x1="721" y1="312.2" x2="721" y2="257.8"/>
</g>
<polyline class="st20" points="818.4,359.7 818.4,386.2 682,411.6 "/>
<polyline class="st20" points="818.4,386.2 839.7,393 839.9,415.6 730,444.1 "/>
<line class="st20" x1="839.4" y1="394" x2="701" y2="425.1"/>
<polyline class="st20" points="839.9,415.6 863.9,422.6 751.5,458.1 "/>
<polyline class="st20" points="863.9,422.6 863.9,447.1 785.9,476.1 "/>
<line class="st20" x1="863.9" y1="447.1" x2="890.8" y2="455.6"/>
</svg>